ModelForces
version=1
nRows=6
nColumns=94
inDegrees=yes

This file contains the forces exerted on a model during a simulation.

A force is a generalized force, meaning that it can be either a force (N) or a torque (Nm).

Units are S.I. units (second, meters, Newtons, ...)
Angles are in degrees.

endheader 
time	addbrev_l	addlong_l	addmagDist_l	addmagIsch_l	addmagMid_l	addmagProx_l	bflh_l	bfsh_l	edl_l	ehl_l	fdl_l	fhl_l	gaslat_l	gasmed_l	glmax1_l	glmax2_l	glmax3_l	glmed1_l	glmed2_l	glmed3_l	glmin1_l	glmin2_l	glmin3_l	grac_l	iliacus_l	perbrev_l	perlong_l	piri_l	psoas_l	recfem_l	sart_l	semimem_l	semiten_l	soleus_l	tfl_l	tibant_l	tibpost_l	vasint_l	vaslat_l	vasmed_l	addbrev_r	addlong_r	addmagDist_r	addmagIsch_r	addmagMid_r	addmagProx_r	bflh_r	bfsh_r	edl_r	ehl_r	fdl_r	fhl_r	gaslat_r	gasmed_r	glmax1_r	glmax2_r	glmax3_r	glmed1_r	glmed2_r	glmed3_r	glmin1_r	glmin2_r	glmin3_r	grac_r	iliacus_r	perbrev_r	perlong_r	piri_r	psoas_r	recfem_r	sart_r	semimem_r	semiten_r	soleus_r	tfl_r	tibant_r	tibpost_r	vasint_r	vaslat_r	vasmed_r	lumbar_extension	lumbar_bending	lumbar_rotation	arm_flex_l	arm_add_l	arm_rot_l	arm_flex_r	arm_add_r	arm_rot_r	elbow_flex_l	elbow_flex_r	pro_sup_l	pro_sup_r	
          4.20000000	         22.79004740	        100.92945509	          9.91140069	         11.09172252	          7.44934417	          7.27027210	          5.52145533	          6.52705943	         73.35359407	         12.37374953	          2.65002891	          6.25652044	         13.67798595	         24.86602408	          8.46515339	         11.65941962	          7.11268673	         12.01957297	          7.69027338	          7.79905359	          4.48932234	          4.78286192	          4.79344412	          4.82403727	        152.63794297	          3.21830898	         24.06642767	          7.65078917	        131.86166390	        118.75647518	          3.25157252	          6.39918455	          5.80596750	         70.59686340	         87.72075243	         86.89482750	         13.88603918	         22.38505051	         63.32110825	         31.82814916	         16.64959074	         20.63866024	          8.82479935	         10.75403611	          7.32924162	         10.74472351	         22.06323746	         34.18412042	          1.31498280	          0.32174048	          2.95463952	          6.64835619	         19.62810584	         37.82807584	         14.04896436	         21.56694966	         16.22977788	         37.39241223	         11.40243509	         14.68448459	         13.91405431	         13.65682117	          5.59504840	         14.51146043	         19.37002820	         11.57365996	         74.52609144	          3.00089041	         47.49869855	        721.07581612	         17.49992246	         19.89702663	          9.10336841	         43.91236243	         86.22403335	        138.96057906	         14.57595264	         19.16179254	         56.12730569	         29.16352883	       -126.39508813	         61.59038934	         77.45034647	       -116.37558901	        100.92008657	         40.30653969	       -131.73414104	        123.07353498	         89.49575329	          5.85711048	         84.62028391	          1.47062954	          0.20562281	
          4.21000000	         25.90786932	        119.23369932	          7.75684491	          7.71562742	          7.12581362	          7.98148144	          4.81260463	          7.07476920	         64.65647094	          0.05837530	          2.11474917	          6.30986779	         21.77772978	         45.01906033	          6.32135483	          8.03657068	          6.02843097	          5.17729567	          6.34172492	          5.47469900	          9.44214749	          6.14874759	          4.47804776	          5.03364336	        147.05009378	         22.04422551	         48.50367336	          3.59804437	        124.68278159	        126.13885618	          3.38149772	          8.03554341	          5.26788735	         85.71909725	        103.16186434	        140.74087984	          9.91257076	         36.38762966	        100.68721531	         51.61427192	         12.70983982	         16.38215466	          8.22788502	          9.92519293	          5.76614144	          8.25257469	         22.80319620	         35.47770890	         25.43527592	         18.75390560	          2.91551855	          6.37977369	         24.32154103	         51.38473020	         13.97729177	         21.11997103	         15.19709319	         31.52427769	         12.89549304	         14.65196852	         12.61123970	         13.67302271	         25.23208068	         13.19895401	         19.98462914	         24.58412195	         58.54659339	        138.25285149	         44.92430242	        157.28422323	         17.25886246	         25.69936259	          9.14207422	         39.77268676	          0.10109596	        106.31835339	         12.57822976	         16.37543834	         47.91096534	         25.02804994	        -68.21344592	         38.56043724	         52.65371513	        -77.77623650	         38.34050414	         20.68298835	        -78.18858897	         73.85601464	         54.71844476	         -5.70428881	         26.38052838	          0.97369977	          0.75616884	
          4.22000000	         25.16516408	        114.78475785	          6.25645538	          5.53576305	          6.78651849	          8.17909575	          3.18617454	          7.15338492	         59.68163002	         32.53089059	          1.56579117	          5.50415241	         25.25988786	         52.80933915	          4.80121482	          5.71630487	          4.23244250	        253.08474473	         18.19445839	          4.47625398	         26.36337402	          9.85208372	          4.10836862	          4.92441718	        125.17169099	         31.17426722	         50.36050616	          1.13057059	        109.55911603	        130.81517638	          3.28727657	          6.37953448	          4.73536820	         87.66807892	        126.28665933	        106.91000797	          6.38361427	         26.47638538	         73.23026203	         38.05751874	          9.10669328	         12.04083836	          7.51850510	          8.94936772	          4.90007543	          5.93752044	         20.58025797	         33.38524790	         25.08565634	         15.37956042	          2.82996323	          6.05072653	         24.16374465	         51.68405856	         14.11362618	         19.03456063	         13.82717481	         27.53196572	         14.44563484	         32.95366976	         11.97349861	         13.02932960	         23.46569210	         11.16146528	         20.27213472	         30.41194427	         65.21522470	        209.25410656	         42.05303835	         78.50549244	         16.65432729	         29.31042151	          9.20627026	         36.04181820	         36.25747807	        110.26692657	         11.20006570	         14.24979588	         40.98134608	         21.85603561	        -54.37380364	         15.51573862	         40.43622367	        -62.78696249	         11.23319458	         12.59683771	        -47.31110516	         37.97282851	         34.59697186	        -11.09963525	          3.27219415	          0.71903997	          0.87758942	
          4.23000000	         23.47798793	        106.37903377	          5.36774835	          4.29117754	          6.57482218	          8.16281315	          2.20690469	         10.23496074	         54.42846980	          2.46158582	          1.30803421	          4.89471221	         25.73806428	         55.10574662	          3.55663899	          3.85652113	          3.00451931	        219.38568268	         29.10671956	          4.40876581	         53.53643236	         28.69785101	          5.11385239	          4.66613348	        131.04900775	         34.72115962	         48.83681319	          0.67611628	         79.19626797	         90.38870206	          5.19619057	          4.92319654	          4.37042910	         80.31492349	        157.49193562	        115.55114967	          4.33057030	         19.08296946	         53.16019674	         27.94835028	          6.49381923	          8.79514113	          7.97454883	          8.79396004	          4.96121396	          4.22615954	         57.01596654	         30.12634873	         21.78108396	         12.60574607	          2.70972006	          5.15118698	         22.13878695	         47.32813837	         63.37587776	        154.70475156	         27.90842968	         24.55518294	         13.82159568	         39.34617131	         11.40138860	         12.09334516	         21.21086517	          9.37367275	         19.92461380	         29.77834937	         53.24565212	        184.36201316	         38.60594608	         97.23620657	         15.41983829	         31.67702967	         11.10720811	         32.26949379	         16.94466444	         90.94147084	          9.27660286	         20.14735312	         54.42440891	         27.77826196	        -20.20328709	          4.03534378	         29.25294311	        -17.10282526	         12.08035999	          4.41019300	        -10.34205609	         16.09562889	          9.50188673	          1.47166899	         -0.23441967	          0.10509340	          0.25035180	
          4.24000000	         21.45147472	         97.15151926	          4.94876268	          3.74511310	          6.45742300	          7.95381005	          2.27247817	         37.23435734	         46.05106087	         25.44421593	          1.52325381	          5.02834272	         26.93416382	         44.93860452	          2.91185710	          3.03793555	          2.93567431	        147.22817542	         33.76880954	          7.12115186	         59.13396618	         35.52857153	          6.56751938	          4.48253123	        374.04484041	         32.28673409	         39.74915623	          1.05445803	        250.83288254	        167.70537590	         32.60254993	          4.19636915	          4.26042707	         66.57986630	        188.43998787	         69.61157961	          5.01673613	         14.61663629	         40.51457872	         21.59096285	          4.71653011	          6.64234341	         10.25423483	         12.25906107	          4.69581098	          2.97167109	        130.58803507	         26.84575786	         19.09633567	         11.23919006	          3.49348612	          7.71937350	         23.34027649	         49.56913145	         95.52137620	        242.04265767	         88.97457459	         21.61723470	         18.02900970	         55.75481205	         10.99719069	         11.39579485	         19.33011693	          7.97525052	         19.41989775	         24.81158521	         50.31729244	        153.44439563	         35.10948893	         99.24223426	         13.84821852	         86.20116281	         15.85261686	         26.14955091	         24.44317988	         76.71460865	         14.05068757	         33.75742378	        135.08229509	         78.28374107	         -9.65404582	        -12.10744603	         28.75966120	          4.39367363	         19.50155926	          2.11957858	         15.77014406	          0.91893826	         -6.11478691	          9.57731744	          0.18861995	         -0.13488617	         -0.19199274	
          4.25000000	         18.97483045	         82.69585367	          5.07802469	          3.76279087	          6.41346967	          7.69694505	          3.26117514	         92.67644403	         43.20170952	          0.52387929	          1.70690514	          5.06583126	          0.49437565	         74.36322817	          2.79827411	          3.12401482	          3.65779947	        147.90842915	         24.43089492	         16.07402545	         56.51170159	         40.96078710	          8.10609832	          5.09150239	        568.03828863	         26.84766772	         52.09617442	          1.49837533	        588.73896427	        233.74312415	         62.93039041	          4.61326080	          4.49109220	         50.20776360	        211.52026963	         86.20495875	          5.33983505	         13.40725185	         40.00166902	         20.31287526	          3.61950189	          5.31786950	         11.42601698	         22.20310428	          4.22989652	          2.12311999	        145.61025002	         23.85763336	         17.58270389	         10.78808418	          3.76160572	          8.61350001	         25.96499015	         52.92713741	        122.57933106	        272.54287143	         74.47929390	         66.69778821	         67.21643279	         86.45569453	         10.88695902	         14.00750745	         27.19181929	          6.98837090	         18.47187372	         19.78720788	         63.06939002	        133.29355518	         31.45273226	         94.06021293	         12.13696011	        226.61373252	         23.34721379	         26.28108966	         23.75105547	         79.85322774	         14.44994506	         31.41884362	        380.59748092	         58.83716949	         -8.75412682	        -22.56953045	         30.88705292	         15.38550768	         28.20129005	          3.64874299	         28.04097897	         -6.73618006	        -10.08718902	         15.20345175	         -0.40205640	         -0.07011802	         -0.26322406	
